<svg xmlns="http://www.w3.org/2000/svg" version="1.0" width="253.000000pt" height="218.000000pt" viewBox="0 0 253.000000 218.000000" preserveAspectRatio="xMidYMid meet"><g transform="translate(0.000000,218.000000) scale(0.100000,-0.100000)" fill="#000000" stroke="none"><path d="M773 2120 c-83 -22 -116 -38 -196 -93 -179 -125 -248 -345 -178 -566 15 -48 17 -69 9 -84 -21 -40 15 -150 66 -199 18 -17 25 -38 29 -81 7 -71 51 -170 101 -224 35 -39 36 -42 36 -122 0 -57 -4 -83 -12 -85 -7 -2 -44 -10 -83 -20 -118 -27 -209 -80 -305 -176 -55 -54 -98 -107 -118 -147 -35 -66 -72 -195 -72 -250 l0 -33 890 0 890 0 0 33 c0 55 -37 184 -72 250 -20 39 -65 94 -118 147 -96 97 -186 148 -305 176 -38 10 -76 18 -82 20 -9 2 -13 28 -13 85 0 80 1 83 36 122 49 54 94 153 101 224 4 43 12 64 30 83 54 54 86 157 63 199 -9 18 -7 32 11 79 19 46 23 77 23 162 1 99 -1 109 -32 172 -38 79 -103 141 -172 165 -29 10 -55 28 -66 46 -27 41 -105 95 -169 118 -71 25 -195 25 -292 -1z m306 -60 c34 -15 70 -42 104 -80 29 -31 64 -60 78 -63 15 -4 48 -21 75 -39 37 -25 57 -48 83 -99 29 -59 34 -77 35 -150 1 -86 -25 -190 -59 -235 -13 -17 -14 -10 -15 67 0 153 -49 250 -153 304 l-55 29 -63 -59 c-38 -35 -93 -72 -137 -93 -72 -34 -78 -35 -206 -38 -72 -1 -144 -7 -161 -14 -67 -25 -105 -86 -105 -165 0 -25 -4 -45 -9 -45 -12 0 -58 145 -66 210 -8 70 15 183 51 250 38 70 131 155 207 191 134 62 291 74 396 29z m171 -377 c71 -72 80 -111 80 -362 -1 -216 -6 -262 -42 -339 -41 -87 -182 -201 -249 -202 -9 0 -24 -9 -34 -20 -25 -28 -105 -28 -130 0 -10 11 -24 20 -31 20 -36 0 -129 54 -177 102 -97 97 -116 165 -117 401 0 182 9 225 52 248 14 8 79 16 169 19 140 6 149 8 220 41 42 20 98 58 129 87 30 28 61 51 69 52 8 0 35 -21 61 -47z m-750 -435 c0 -21 -19 -4 -29 25 l-11 32 20 -25 c11 -14 20 -28 20 -32z m909 22 c-6 -16 -15 -30 -20 -30 -13 0 -11 13 7 38 21 30 25 28 13 -8z m-595 -540 c57 -27 114 -50 126 -50 12 0 69 23 126 50 57 28 106 50 109 50 3 0 5 -28 5 -63 0 -58 -3 -66 -32 -95 -108 -103 -308 -103 -415 0 -30 29 -33 37 -33 95 0 35 2 63 5 63 3 0 52 -22 109 -50z m-113 -152 c19 -17 59 -43 89 -57 47 -22 69 -26 150 -26 81 0 103 4 150 26 30 14 70 40 89 57 38 37 66 40 151 17 142 -38 291 -145 360 -261 37 -61 79 -174 80 -211 l0 -23 -830 0 c-796 0 -830 1 -830 18 0 33 31 126 63 187 47 88 156 194 248 239 84 41 156 64 210 65 28 1 45 -6 70 -31z" /></g></svg>